<?xml version="1.0" standalone="no"?>
<!DOCTYPE svg PUBLIC "-//W3C//DTD SVG 20010904//EN"
 "http://www.w3.org/TR/2001/REC-SVG-20010904/DTD/svg10.dtd">
<svg version="1.0" xmlns="http://www.w3.org/2000/svg"
 width="256.000000pt" height="256.000000pt" viewBox="0 0 256.000000 256.000000"
 preserveAspectRatio="xMidYMid meet">

<g transform="translate(0.000000,256.000000) scale(0.100000,-0.100000)"
fill="#000000" stroke="none">
<path d="M1200 2144 c-119 -21 -150 -29 -199 -50 -78 -35 -118 -68 -161 -135
-70 -108 -179 -446 -166 -512 16 -80 125 -150 296 -189 130 -29 458 -32 593
-5 172 35 271 87 307 163 22 44 22 45 5 122 -23 104 -88 288 -131 373 -58 116
-138 178 -278 214 -61 15 -221 27 -266 19z m200 -48 c0 -7 -13 -16 -30 -19
-21 -5 -30 -12 -30 -27 0 -18 -6 -20 -60 -20 -48 0 -60 3 -60 16 0 8 -16 22
-35 30 -20 8 -33 19 -30 24 4 6 59 10 126 10 94 0 119 -3 119 -14z m-280 -21
c0 -8 15 -21 33 -28 l32 -14 -53 -11 c-74 -17 -145 -55 -181 -99 -17 -21 -45
-71 -62 -113 -39 -94 -46 -101 -54 -57 -4 20 -13 37 -21 39 -11 2 -5 22 25 83
22 44 48 89 58 101 32 37 89 74 144 94 66 24 79 24 79 5z m433 -22 c36 -17 74
-44 101 -73 48 -55 114 -190 91 -190 -8 0 -17 -15 -21 -35 -3 -19 -9 -35 -13
-35 -3 0 -19 33 -36 74 -55 140 -91 176 -217 217 -81 26 -81 26 -50 37 19 6
32 18 32 28 0 20 29 14 113 -23z m-134 -69 c38 -8 90 -28 116 -45 40 -25 52
-42 86 -114 38 -80 99 -254 113 -322 7 -30 5 -33 -34 -53 -88 -45 -184 -62
-375 -67 -195 -6 -313 8 -417 47 -97 36 -95 32 -64 140 37 131 99 284 131 325
67 89 270 129 444 89z m-620 -302 c1 -12 7 -25 15 -28 12 -4 11 -15 -4 -63
-35 -116 -35 -127 2 -154 86 -64 227 -92 468 -92 204 0 309 16 412 62 85 38
90 46 73 118 -7 33 -18 73 -24 88 -9 23 -8 32 4 43 8 9 15 26 15 39 0 52 20
31 45 -47 37 -116 41 -159 20 -192 -104 -158 -729 -199 -996 -65 -31 15 -69
43 -84 61 -24 28 -27 38 -22 78 4 25 18 83 33 130 21 67 28 81 35 65 4 -11 8
-30 8 -43z"/>
<path d="M1046 1783 c-13 -13 -5 -23 41 -50 l47 -27 -47 -15 c-42 -13 -66 -41
-34 -41 26 0 131 36 134 46 2 6 -25 28 -59 49 -79 48 -74 46 -82 38z"/>
<path d="M1435 1749 c-33 -21 -60 -44 -60 -51 0 -12 92 -46 128 -47 36 -2 15
26 -30 40 l-48 15 48 28 c44 26 56 46 31 52 -5 1 -36 -15 -69 -37z"/>
<path d="M1140 1560 c0 -25 32 -71 60 -85 38 -20 113 -19 156 1 39 18 42 23
54 64 l9 30 -140 0 c-90 0 -139 -4 -139 -10z m255 -20 c-4 -6 -55 -10 -121
-10 -69 0 -114 4 -114 10 0 6 47 10 121 10 77 0 118 -4 114 -10z"/>
<path d="M2069 1555 c-3 -3 -33 -9 -65 -13 -55 -6 -59 -9 -62 -35 -2 -15 6
-42 17 -61 12 -18 21 -39 21 -46 0 -7 -21 -40 -46 -74 -26 -33 -56 -80 -67
-103 -18 -36 -27 -44 -61 -51 l-41 -8 -5 -79 c-7 -110 1 -186 21 -198 12 -8
33 -3 80 19 l64 29 50 -17 c68 -25 184 -20 241 10 145 74 149 235 9 406 l-48
60 29 53 c35 66 27 85 -37 94 -24 3 -55 9 -69 13 -14 4 -28 4 -31 1z m99 -57
c25 0 28 7 -24 -73 -14 -21 -24 -25 -63 -25 -44 0 -47 2 -74 45 -15 25 -27 48
-27 50 0 7 75 13 120 8 25 -2 55 -5 68 -5z m12 -175 c94 -107 130 -237 84
-300 -38 -51 -100 -78 -179 -78 -222 1 -273 169 -111 368 l47 57 59 0 c57 0
59 -1 100 -47z m-348 -216 c-2 -18 3 -51 12 -72 18 -41 16 -45 -26 -63 l-28
-12 1 83 c2 92 3 97 28 97 13 0 16 -7 13 -33z"/>
<path d="M1999 1256 c-68 -47 -90 -143 -46 -206 37 -55 72 -75 132 -75 121 0
193 124 132 229 -43 75 -147 100 -218 52z m147 -35 c94 -57 50 -206 -61 -206
-51 0 -88 29 -105 81 -32 95 79 178 166 125z"/>
<path d="M2053 1193 c-36 -41 -27 -64 30 -78 30 -8 35 -22 12 -32 -9 -3 -24 2
-34 11 -14 13 -21 14 -27 5 -4 -7 1 -19 14 -30 12 -9 22 -22 22 -28 0 -19 24
-12 48 13 38 41 27 77 -31 91 -15 4 -27 11 -27 16 0 13 34 11 48 -3 8 -8 15
-9 23 -1 7 7 6 15 -5 26 -9 9 -16 20 -16 26 0 20 -35 10 -57 -16z"/>
<path d="M395 1343 c-11 -2 -30 -6 -42 -9 -33 -6 -94 -63 -109 -101 -17 -39
-18 -111 -3 -150 14 -38 57 -83 96 -99 43 -19 127 -18 164 2 29 15 32 14 77
-15 85 -54 183 -95 201 -84 20 12 28 88 21 198 l-5 80 -50 7 c-27 4 -70 10
-95 13 -42 6 -46 9 -68 56 -33 68 -118 115 -187 102z m66 -34 c81 -27 130
-111 109 -188 -21 -78 -76 -121 -157 -121 -88 0 -153 68 -153 160 0 70 37 121
107 146 47 16 52 17 94 3z m300 -175 c4 -2 7 -42 8 -88 l1 -84 -75 30 c-60 24
-72 33 -61 42 21 17 28 73 11 90 -8 8 -15 18 -15 21 0 7 118 -3 131 -11z
m-147 -49 c-6 -16 -24 -21 -24 -7 0 11 11 22 21 22 5 0 6 -7 3 -15z m-34 -55
c0 -5 -5 -10 -11 -10 -5 0 -7 5 -4 10 3 6 8 10 11 10 2 0 4 -4 4 -10z"/>
<path d="M390 1260 c0 -15 -7 -20 -25 -20 -18 0 -25 -5 -25 -20 0 -11 5 -20
10 -20 6 0 10 -20 10 -45 0 -25 -4 -45 -10 -45 -5 0 -10 -9 -10 -20 0 -14 7
-20 21 -20 12 0 23 -8 26 -20 6 -23 23 -27 23 -5 0 8 5 15 10 15 6 0 10 -7 10
-15 0 -8 5 -15 10 -15 6 0 10 7 10 15 0 8 9 19 20 25 16 8 19 20 18 73 -1 77
-5 97 -24 97 -8 0 -14 9 -14 20 0 11 -4 20 -10 20 -5 0 -10 -9 -10 -20 0 -11
-4 -20 -10 -20 -5 0 -10 9 -10 20 0 11 -4 20 -10 20 -5 0 -10 -9 -10 -20z m55
-70 c0 -8 -10 -16 -22 -18 -22 -3 -32 16 -16 32 12 11 38 2 38 -14z m5 -80 c0
-15 -7 -20 -25 -20 -18 0 -25 5 -25 20 0 15 7 20 25 20 18 0 25 -5 25 -20z"/>
<path d="M935 1190 c-84 -11 -99 -32 -91 -125 3 -38 17 -116 31 -173 27 -113
109 -371 131 -414 22 -43 98 -60 263 -61 156 -1 239 14 270 46 46 50 173 498
175 619 1 84 -8 94 -99 107 -80 12 -590 12 -680 1z m700 -38 c39 -7 40 -9 43
-51 3 -44 -27 -208 -52 -278 l-13 -38 -39 78 -38 77 -42 0 c-36 0 -43 4 -48
23 -15 62 -95 116 -169 117 -69 0 -148 -56 -163 -117 -5 -20 -12 -23 -50 -23
l-44 0 -39 -77 -39 -78 -11 40 c-17 67 -49 207 -56 250 -10 65 5 76 121 85
111 10 577 4 639 -8z m-287 -142 c93 -57 68 -201 -38 -230 -71 -19 -147 33
-157 107 -14 105 103 179 195 123z m-228 -141 c0 -35 39 -88 81 -109 45 -24
109 -26 148 -5 38 19 81 71 88 106 5 25 10 29 38 29 30 0 34 -4 75 -91 l43
-91 -27 -84 -27 -84 -259 0 -258 0 -28 76 c-15 42 -27 81 -27 87 0 7 19 51 42
100 40 85 42 87 76 87 29 0 35 -4 35 -21z m400 -378 c0 -24 -80 -36 -240 -36
-160 0 -240 12 -240 36 0 5 100 9 240 9 140 0 240 -4 240 -9z"/>
<path d="M928 1109 c-22 -12 -24 -62 -4 -78 26 -22 70 -9 81 23 8 24 6 31 -14
47 -26 21 -38 23 -63 8z m49 -35 c3 -8 1 -20 -6 -27 -14 -14 -47 15 -37 32 10
16 36 13 43 -5z"/>
<path d="M1067 1102 c-34 -37 -15 -82 33 -82 49 0 68 51 32 83 -24 22 -45 21
-65 -1z m56 -26 c7 -17 -18 -40 -33 -31 -5 3 -10 15 -10 26 0 23 35 27 43 5z"/>
<path d="M1435 1100 c-27 -29 -10 -74 28 -78 37 -4 57 13 57 49 0 47 -53 65
-85 29z m61 -21 c8 -14 -21 -43 -35 -35 -19 12 -13 46 8 46 11 0 23 -5 27 -11z"/>
<path d="M1586 1107 c-19 -14 -25 -62 -10 -77 22 -20 53 -21 73 -1 26 26 26
46 1 71 -23 23 -39 25 -64 7z m52 -40 c4 -20 -25 -34 -40 -19 -15 15 -1 44 19
40 10 -2 19 -11 21 -21z"/>
<path d="M1077 683 c-4 -3 -7 -35 -7 -70 l0 -63 40 0 40 0 0 70 0 70 -33 0
c-19 0 -37 -3 -40 -7z m51 -60 c-4 -52 -28 -56 -28 -4 0 30 4 41 16 41 11 0
14 -9 12 -37z"/>
<path d="M1240 621 l0 -71 40 0 41 0 -3 68 -3 67 -37 3 -38 3 0 -70z m50 -2
c0 -52 -24 -48 -28 4 -2 28 1 37 12 37 12 0 16 -11 16 -41z"/>
<path d="M1410 621 l0 -71 40 0 41 0 -3 68 -3 67 -37 3 -38 3 0 -70z m50 -1
c0 -29 -4 -40 -15 -40 -11 0 -15 11 -15 40 0 29 4 40 15 40 11 0 15 -11 15
-40z"/>
</g>
</svg>
